<svg xmlns="http://www.w3.org/2000/svg" width="1612" height="1147" viewBox="0 0 1612 1147"><defs><linearGradient id="a" x1="87.739%" x2="10.457%" y1="41.004%" y2="60.085%"><stop offset="0%" stop-color="#443B43"/><stop offset="100%" stop-color="#3C006F"/></linearGradient></defs><g fill="none" fill-rule="evenodd" stroke="url(#a)" opacity=".693" transform="rotate(17 107.013 740.408)"><path d="M8.04837214e-15,753.094072 C209.308631,752.820005 355.481544,700.225356 438.518738,595.310126 C563.07453,437.937281 645.666218,413.425086 896.806088,367.902439 C1064.23267,337.554007 1245.29731,235.617885 1440,62.0940724"/><path d="M3.15691109,737.347859 C212.465542,737.073791 358.638455,684.479143 441.675649,579.563913 C566.231441,422.191068 648.823129,397.678873 899.962999,352.156225 C1067.38958,321.807793 1248.45422,219.871671 1443.15691,46.3478587"/><path d="M6.86865338,722.472832 C216.177284,722.198764 362.350197,669.604116 445.387392,564.688885 C569.943184,407.31604 652.534871,382.803846 903.674741,337.281198 C1071.10132,306.932766 1252.16596,204.996644 1446.86865,31.4728316"/><path d="M9.97579002,706.742791 C219.284421,706.468723 365.457334,653.874074 448.494528,548.958844 C573.05032,391.585999 655.642008,367.073805 906.781878,321.551157 C1074.20846,291.202725 1255.2731,189.266603 1449.97579,15.7427906"/><path d="M13.3892355,691 C222.697866,690.725933 368.870779,638.131284 451.907974,533.216054 C576.463766,375.843209 659.055453,351.331014 910.195323,305.808366 C1077.6219,275.459935 1258.68654,173.523813 1453.38924,-2.77044174e-14"/></g></svg>